<svg xmlns="http://www.w3.org/2000/svg" xmlns:xlink="http://www.w3.org/1999/xlink" width="340.805" height="57.146" viewBox="0 0 340.805 57.146">
  <defs>
    <linearGradient id="linear-gradient" x1="0.5" x2="0.5" y2="1" gradientUnits="objectBoundingBox">
      <stop offset="0" stop-color="#f2b411"/>
      <stop offset="1" stop-color="#f18f33"/>
    </linearGradient>
    <linearGradient id="linear-gradient-2" x1="0.5" x2="0.5" y2="1" gradientUnits="objectBoundingBox">
      <stop offset="0" stop-color="#fab90d"/>
      <stop offset="1" stop-color="#f18f33"/>
    </linearGradient>
  </defs>
  <g id="logo" transform="translate(-801.992 495.222)">
    <g id="Group_4" data-name="Group 4" transform="translate(801.992 -495.222)">
      <g id="Group_3" data-name="Group 3" transform="translate(0 0)">
        <path id="Path_1" data-name="Path 1" d="M46.871,37.173c1.254-7.7-2.1-16.413-10.927-20a2.465,2.465,0,0,0-.406-.149,3.565,3.565,0,0,1-3.1-3.056c-.72-3.009-3.836-3.847-6.912-2.325a5.709,5.709,0,0,1,1.061-1.171,4.839,4.839,0,0,1,7.14,1.851c1.04,2.128,2.553,2.6,4.588,2.842,3.327.4,6.662.977,9.5,2.958,1.4.98,2.637,2.2,3.926,3.3a8.007,8.007,0,0,0-2.788-4.275c-1.362-1.1-2.845-2.04-4.543-3.24L47,14.5A19.792,19.792,0,0,0,35.432,9.935a17.494,17.494,0,0,1,7.692-1.89C39.98,5.323,36.236,5.379,32.668,4.778l4.1-.575a10.666,10.666,0,0,0-7.851-1c-2.622.7-5.187,1.622-7.812,2.457,1.277-1.579,3.218-2.359,5.051-3.618a15.331,15.331,0,0,0-8.324,1.034,24.622,24.622,0,0,0-3.377,1.908,2.471,2.471,0,0,0-1.065,2.508l2.187-2.807V8.423l3.892-2.171.176.243L18.173,9.139l.105.362c2.412-.416,4.826-.871,7.21.319l-2.545.692,2.352,1.3a10.438,10.438,0,0,0-1.332,2.7,9.944,9.944,0,0,0,.433,2.9l-1.474.2a10.133,10.133,0,0,0,1.041,5.5l-2.757-.975a4.942,4.942,0,0,1-2.53,3.96,2.546,2.546,0,0,1-1.6.286A2.043,2.043,0,0,0,14.6,27.4a8.757,8.757,0,0,0-.985,2.378,5.492,5.492,0,0,1-2.958,4.16A4.529,4.529,0,0,0,9.374,35.2a11.842,11.842,0,0,0-.833,1.375,12.374,12.374,0,0,1-2.884-7.619l4.118-.523c.143-.018.319.016.425-.056a10.058,10.058,0,0,0,1.788-1.365c.094-.1-.393-.952-.772-1.25a1.888,1.888,0,0,0-2.319.012,9.322,9.322,0,0,0-.875.807c-1.463,1.261-2.993,1.372-4.354.031A16.142,16.142,0,0,1,1.359,23.38c-.454-.754-.093-1.441.524-2.027a13.77,13.77,0,0,0,1.111-1.343l-.3-.249-1.546,2C-.161,21.01-.392,19.826.67,18.85c1.275-1.172,2.678-2.2,3.989-3.335A9.159,9.159,0,0,0,6.292,13.8a10.628,10.628,0,0,1,5.075-3.72c.488-.2.939-.493,1.395-.736-1.37-3.591-.4-5.992,2.93-7.8,3.184-1.728,6.6-1.682,10.015-1.4A42.386,42.386,0,0,1,40.833,4.292a23.937,23.937,0,0,1,7.321,5.714L42.56,9.284l-.2.447a17.439,17.439,0,0,1,9.544,8.3,23.383,23.383,0,0,1,2.715,12.432c-1.9-3.421-3.079-7.315-6.771-9.383a18.328,18.328,0,0,1,3.982,7.946c1.248,6.2-.452,11.725-4.043,16.72-3.005,4.181-7.208,6.814-11.955,8.906.706-4.77,2.311-9.428.314-14.18-.126,4.02-.657,7.927-3.286,11.158s-6.194,4.683-10.313,5.515c.976-2.106.349-3.8-.784-5.417-.831-1.184-1.586-2.424-2.45-3.582a8.183,8.183,0,0,1-1.81-6.507,4.012,4.012,0,0,0,0-.655,4.9,4.9,0,0,0-1.576,3.808,18.606,18.606,0,0,0,3.1,9.713c.13.217.288.417.428.627.018.027.009.071.024.24a18.629,18.629,0,0,1-6.872-3.5C6.747,47,6.291,39.8,11.509,33.865a22.305,22.305,0,0,1,8.984-6.414c.37-.138.716-.342,1.084-.488A6.4,6.4,0,0,0,26,21.408,3.864,3.864,0,0,1,26.13,25.5c-.961,1.879-2.654,2.883-4.415,3.848a45.4,45.4,0,0,0-5.942,3.515,11.894,11.894,0,0,0-4.343,12.879A8.3,8.3,0,0,0,14.3,49.993a17.768,17.768,0,0,1-1.386-8.052l.91,1.685c1.419-8.162,7.514-11.555,13.964-14.618-1.644,1.974-3.381,3.879-4.9,5.944a29.292,29.292,0,0,0-2.969,5,6.53,6.53,0,0,0,.565,6.445c.438.707.909,1.4,1.4,2.068a10.525,10.525,0,0,1,2.543,6.415c1.947-2.855,1.762-5.638.377-8.5,1.723,1.265,2.383,3.142,3.145,5.286.86-2.784.327-5.2-.414-7.675,1.022.669,1.44,1.422,2.666,4.7,1.01-2.115.649-6-.867-11.011.331.582.684,1.153.987,1.749.344.678.654,1.374.958,2.071a19.2,19.2,0,0,0,.917,1.967A22.654,22.654,0,0,0,30.3,30.695c4.762,1.276,9.382,8.977,10.15,16.744,1.125-1.625.584-5.478-1.8-12.818A8.894,8.894,0,0,1,42.023,38.6c.763,1.586,1.347,3.26,2.068,5.036.724-5.619.349-10.909-3.013-15.8,2.162,1.2,3.22,2.926,5.794,9.334M11.147,15.583l5.626-1.014q0-.162,0-.323l-2.411-.72.369-.789-.164-.127-3.425,2.973m10.459-.326c1.414-1.223,1.775-2.729.9-3.73a1.882,1.882,0,0,0-2.939.024c2.606.46,2.606.46,2.044,3.706" transform="translate(0 0)" fill="url(#linear-gradient)"/>
        <path id="Path_2" data-name="Path 2" d="M138.077,95.861c-2.068-1.793-4.086-3.624-6.194-5.346-2.222-1.816-3.207-3.1-3.9-5.492l7.661,6.877.378-.333-3.235-4.5,3.292,2.563.173-.136-2.766-4.1,1.625.593c-.918-1.873-2.507-2.879-4.07-4.026,5.461.2,9.226,7.957,7.037,13.9" transform="translate(-100.307 -64.051)" fill="url(#linear-gradient-2)"/>
        <path id="Path_3" data-name="Path 3" d="M123.757,57.624c1.268,0,3.228,1.98,3.162,3.259a1.7,1.7,0,0,1-.474.881,1.726,1.726,0,0,1-.657.357c-1.749.725-1.75.723-2.559-.966-.249-.519-.5-1.036-.747-1.557a1.305,1.305,0,0,1,1.274-1.975" transform="translate(-95.859 -45.054)" fill="url(#linear-gradient-2)"/>
      </g>
    </g>
    <text id="National_Social_Payments_Account_Portal" data-name="National Social Payments Account Portal" transform="translate(867.797 -470.317)" font-size="13" font-family="Georgia-Bold, Georgia" font-weight="700"><tspan x="0" y="0">National Social Payments Account Portal</tspan></text>
    <text id="Providing_what_matters_the_most" data-name="Providing what matters the most" transform="translate(867.803 -454.826)" fill="#707070" font-size="10" font-family="Inter-Regular, Inter"><tspan x="0" y="0">Providing what matters the most</tspan></text>
  </g>
</svg>
